<svg fill="#FFFFFF" xmlns="http://www.w3.org/2000/svg"  viewBox="0 0 50 50" width="50px" height="50px"><path d="M 25 2 C 12.316406 2 2 12.316406 2 25 C 2 37.683594 12.316406 48 25 48 C 37.683594 48 48 37.683594 48 25 C 48 12.316406 37.683594 2 25 2 Z M 37 26 L 15.414063 26 L 21.707031 32.292969 C 22.097656 32.683594 22.097656 33.316406 21.707031 33.707031 C 21.511719 33.902344 21.257813 34 21 34 C 20.742188 34 20.488281 33.902344 20.292969 33.707031 L 12.292969 25.707031 C 12.199219 25.613281 12.128906 25.503906 12.078125 25.382813 C 11.976563 25.136719 11.976563 24.863281 12.078125 24.617188 C 12.128906 24.496094 12.199219 24.386719 12.292969 24.292969 L 20.292969 16.292969 C 20.683594 15.902344 21.316406 15.902344 21.707031 16.292969 C 22.097656 16.683594 22.097656 17.316406 21.707031 17.707031 L 15.414063 24 L 37 24 C 37.554688 24 38 24.449219 38 25 C 38 25.550781 37.554688 26 37 26 Z"/></svg>