<svg fill="#FFFFFF" xmlns="http://www.w3.org/2000/svg"  viewBox="0 0 100 100" width="66px" height="66px"><path d="M 9.5996094 17.099609 C 9.1996094 17.099609 8.8007812 17.400781 8.8007812 17.800781 L 8.6992188 18.800781 L 7.6992188 18.699219 C 7.2992187 18.699219 6.9003906 19.000391 6.9003906 19.400391 C 6.9003906 19.800391 7.1996094 20.199219 7.5996094 20.199219 L 8.5996094 20.300781 L 8.5 21.300781 C 8.5 21.700781 8.7992188 22.099609 9.1992188 22.099609 C 9.5992188 22.099609 10 21.800391 10 21.400391 L 10.099609 20.400391 L 11.099609 20.5 C 11.499609 20.5 11.900391 20.200781 11.900391 19.800781 C 11.900391 19.400781 11.599219 19 11.199219 19 L 10.199219 18.900391 L 10.300781 17.900391 C 10.300781 17.400391 9.9996094 17.099609 9.5996094 17.099609 z M 89 21 C 88.6 21 88.199219 21.299219 88.199219 21.699219 L 88.099609 22.699219 L 87.099609 22.599609 C 86.699609 22.599609 86.300781 22.900781 86.300781 23.300781 C 86.300781 23.700781 86.6 24.099609 87 24.099609 L 88 24.199219 L 87.900391 25.199219 C 87.900391 25.599219 88.199609 26 88.599609 26 C 88.999609 26 89.400391 25.700781 89.400391 25.300781 L 89.5 24.300781 L 90.5 24.400391 C 90.9 24.400391 91.300781 24.099219 91.300781 23.699219 C 91.300781 23.299219 90.999609 22.900391 90.599609 22.900391 L 89.599609 22.800781 L 89.699219 21.800781 C 89.699219 21.400781 89.4 21 89 21 z M 24.400391 22.599609 C 22.000391 22.599609 20 24.6 20 27 L 20 38 L 18.099609 38 C 15.799609 38 14 39.8 14 42 C 14 44.3 15.899609 46.099609 18.099609 46.099609 L 20 46.099609 L 20 72.199219 C 20 73.099219 20.299219 73.899609 20.699219 74.599609 L 13.199219 74.599609 C 12.599219 74.699609 12.199219 75.099219 12.199219 75.699219 C 12.199219 76.299219 12.599219 76.699219 13.199219 76.699219 L 86.099609 76.699219 C 86.699609 76.699219 87.099609 76.299219 87.099609 75.699219 C 87.099609 75.099219 86.699609 74.699219 86.099609 74.699219 L 82 74.699219 C 84.5 72.899219 86 69.899219 86 66.699219 C 86 61.199219 81.5 56.699219 76 56.699219 L 76 46.099609 L 77.900391 46.099609 C 80.200391 46.099609 82 44.3 82 42 C 82 39.7 80.200391 38 77.900391 38 L 76 38 L 76 27 C 76 24.6 73.999609 22.599609 71.599609 22.599609 L 24.400391 22.599609 z M 24.400391 24.5 L 71.599609 24.5 C 72.899609 24.5 74 25.600391 74 26.900391 L 74 37.900391 L 64.599609 37.900391 L 64.599609 35.599609 C 64.599609 34.499609 63.7 33.5 62.5 33.5 L 54.300781 33.5 C 53.200781 33.5 52.199219 34.399609 52.199219 35.599609 L 52.199219 38 L 49.400391 38 L 49.400391 35.800781 C 49.400391 35.200781 49.000391 34.800781 48.400391 34.800781 C 47.800391 34.800781 47.400391 35.200781 47.400391 35.800781 L 47.400391 38 L 42.599609 38 L 42.599609 35.699219 C 42.599609 34.599219 41.7 33.599609 40.5 33.599609 L 32.300781 33.599609 C 31.200781 33.599609 30.199219 34.499219 30.199219 35.699219 L 30.199219 38 L 22 38 L 22 26.900391 C 22 25.600391 23.100391 24.5 24.400391 24.5 z M 28.599609 28.199219 C 26.999609 28.199219 25.599609 29.499219 25.599609 31.199219 L 25.599609 34.699219 C 25.599609 35.299219 25.999609 35.699219 26.599609 35.699219 C 27.199609 35.699219 27.599609 35.299219 27.599609 34.699219 L 27.599609 31.199219 C 27.599609 30.699219 27.999609 30.199219 28.599609 30.199219 L 32.099609 30.199219 C 32.699609 30.199219 33.099609 29.799219 33.099609 29.199219 C 33.099609 28.599219 32.699609 28.199219 32.099609 28.199219 L 28.599609 28.199219 z M 62.900391 28.199219 C 62.300391 28.199219 61.900391 28.599219 61.900391 29.199219 C 61.900391 29.799219 62.400391 30.199219 62.900391 30.199219 L 66.400391 30.199219 C 66.900391 30.199219 67.400391 30.599219 67.400391 31.199219 L 67.400391 34.699219 C 67.400391 35.299219 67.800391 35.699219 68.400391 35.699219 C 69.000391 35.699219 69.400391 35.299219 69.400391 34.699219 L 69.400391 31.199219 C 69.400391 29.599219 68.100391 28.199219 66.400391 28.199219 L 62.900391 28.199219 z M 32.599609 35.699219 L 40.800781 35.699219 C 40.800781 35.699219 40.900391 35.700781 40.900391 35.800781 L 40.900391 38 L 38.900391 38 C 38.700391 37.7 38.399609 37.5 38.099609 37.5 L 35.300781 37.5 C 34.900781 37.5 34.6 37.7 34.5 38 L 32.599609 38 L 32.599609 35.699219 z M 54.300781 35.699219 L 62.5 35.699219 C 62.5 35.699219 62.599609 35.700781 62.599609 35.800781 L 62.599609 38 L 60.699219 38 C 60.499219 37.7 60.200391 37.5 59.900391 37.5 L 57 37.5 C 56.6 37.5 56.299219 37.7 56.199219 38 L 54.300781 38 L 54.300781 35.699219 z M 18.099609 39.900391 L 77.900391 39.900391 C 79.100391 39.900391 80 40.8 80 42 C 80 43.2 79.100391 44.099609 77.900391 44.099609 L 18.099609 44.099609 C 16.899609 44.099609 16 43.2 16 42 C 16 40.8 16.899609 39.900391 18.099609 39.900391 z M 22 46.099609 L 44.699219 46.099609 L 44.699219 48 L 39.400391 48 C 38.800391 48 38.400391 48.4 38.400391 49 C 38.400391 49.6 38.800391 50 39.400391 50 L 45.699219 50 C 46.299219 50 46.699219 49.6 46.699219 49 L 46.699219 46.099609 L 74 46.099609 L 74 56.699219 C 69.4 57.599219 65.900391 61.7 65.900391 66.5 C 65.900391 67.3 65.999219 68.100391 66.199219 68.900391 L 62.900391 68.900391 C 62.300391 68.900391 61.900391 69.300391 61.900391 69.900391 C 61.900391 70.500391 62.300391 70.900391 62.900391 70.900391 L 66.400391 70.900391 L 66.900391 70.900391 C 67.600391 72.400391 68.7 73.699609 70 74.599609 L 24.400391 74.599609 C 23.100391 74.699609 22 73.599219 22 72.199219 L 22 46.099609 z M 50.300781 47.199219 C 49.700781 47.199219 49.300781 47.599219 49.300781 48.199219 C 49.300781 48.799219 49.700781 49.199219 50.300781 49.199219 L 53.199219 49.199219 L 53.199219 50.599609 C 53.199219 51.199609 53.599219 51.599609 54.199219 51.599609 L 58 51.599609 C 58.6 51.599609 59 51.199609 59 50.599609 C 59 49.999609 58.6 49.599609 58 49.599609 L 55.199219 49.599609 L 55.199219 48.199219 C 55.199219 47.599219 54.799219 47.199219 54.199219 47.199219 L 50.300781 47.199219 z M 31.5 48 C 30.9 48 30.5 48.4 30.5 49 C 30.5 49.6 30.9 50 31.5 50 L 33.5 50 C 34.1 50 34.5 49.6 34.5 49 C 34.5 48.4 34.1 48 33.5 48 L 31.5 48 z M 61.599609 48 C 60.999609 48 60.599609 48.4 60.599609 49 C 60.599609 49.6 60.999609 50 61.599609 50 L 63.599609 50 C 64.199609 50 64.599609 49.6 64.599609 49 C 64.599609 48.4 64.199609 48 63.599609 48 L 61.599609 48 z M 32.599609 53.199219 C 31.499609 53.199219 30.5 54.100781 30.5 55.300781 L 30.5 63.400391 C 30.5 64.500391 31.399609 65.5 32.599609 65.5 L 40.699219 65.5 C 41.799219 65.5 42.800781 64.600391 42.800781 63.400391 L 42.800781 55.300781 C 42.800781 54.200781 41.799219 53.199219 40.699219 53.199219 L 32.599609 53.199219 z M 54.400391 53.199219 C 53.300391 53.199219 52.300781 54.100781 52.300781 55.300781 L 52.300781 63.400391 C 52.300781 64.500391 53.200391 65.5 54.400391 65.5 L 62.5 65.5 C 63.6 65.5 64.599609 64.600391 64.599609 63.400391 L 64.599609 55.300781 C 64.599609 54.200781 63.7 53.199219 62.5 53.199219 L 54.400391 53.199219 z M 32.599609 55.199219 L 40.699219 55.199219 C 40.699219 55.199219 40.800781 55.200781 40.800781 55.300781 L 40.699219 63.5 L 32.5 63.400391 L 32.599609 55.199219 z M 54.400391 55.199219 L 62.5 55.199219 C 62.5 55.199219 62.599609 55.200781 62.599609 55.300781 L 62.5 63.5 L 54.300781 63.400391 L 54.400391 55.199219 z M 49.199219 55.900391 C 48.599219 55.900391 48.199219 56.300391 48.199219 56.900391 L 48.199219 59.800781 L 45.900391 59.800781 C 45.300391 59.800781 44.900391 60.200781 44.900391 60.800781 L 44.900391 64.599609 C 44.900391 65.199609 45.300391 65.599609 45.900391 65.599609 C 46.500391 65.599609 46.900391 65.199609 46.900391 64.599609 L 46.900391 61.800781 L 49.199219 61.800781 C 49.799219 61.800781 50.199219 61.400781 50.199219 60.800781 L 50.199219 56.900391 C 50.199219 56.300391 49.699219 55.900391 49.199219 55.900391 z M 35.199219 57 C 34.699219 57 34.300781 57.400391 34.300781 57.900391 L 34.300781 60.699219 C 34.300781 61.199219 34.699219 61.599609 35.199219 61.599609 L 38 61.599609 C 38.5 61.599609 38.900391 61.199219 38.900391 60.699219 L 38.900391 58 C 39.000391 57.5 38.5 57 38 57 L 35.199219 57 z M 57 57 C 56.5 57 56.099609 57.400391 56.099609 57.900391 L 56.099609 60.699219 C 56.099609 61.199219 56.5 61.599609 57 61.599609 L 59.800781 61.599609 C 60.300781 61.599609 60.699219 61.199219 60.699219 60.699219 L 60.699219 58 C 60.799219 57.5 60.300781 57 59.800781 57 L 57 57 z M 76 58.599609 C 80.4 58.599609 84 62.199609 84 66.599609 C 84 70.999609 80.4 74.599609 76 74.599609 C 71.6 74.599609 68 70.999609 68 66.599609 C 68 62.199609 71.6 58.599609 76 58.599609 z M 80.099609 62.800781 C 79.849609 62.800781 79.600391 62.899609 79.400391 63.099609 L 74.599609 67.900391 L 72.599609 65.900391 C 72.199609 65.500391 71.599219 65.500391 71.199219 65.900391 C 70.799219 66.300391 70.799219 66.900781 71.199219 67.300781 L 73.900391 70 C 74.300391 70.4 74.900781 70.4 75.300781 70 L 80.800781 64.5 C 81.200781 64.1 81.200781 63.499609 80.800781 63.099609 C 80.600781 62.899609 80.349609 62.800781 80.099609 62.800781 z M 10.900391 63.400391 C 10.500391 63.400391 10.099609 63.699609 10.099609 64.099609 L 10 65.099609 L 9 65 C 8.6 65 8.1992188 65.299219 8.1992188 65.699219 C 8.1992188 66.099219 8.5003906 66.5 8.9003906 66.5 L 9.9003906 66.599609 L 9.8007812 67.599609 C 9.8007812 67.999609 10.1 68.400391 10.5 68.400391 C 10.9 68.400391 11.300781 68.099219 11.300781 67.699219 L 11.400391 66.699219 L 12.400391 66.800781 C 12.800391 66.800781 13.199219 66.499609 13.199219 66.099609 C 13.199219 65.699609 12.9 65.300781 12.5 65.300781 L 11.5 65.199219 L 11.599609 64.199219 C 11.599609 63.799219 11.300391 63.400391 10.900391 63.400391 z M 26.599609 63.5 C 25.999609 63.5 25.599609 63.9 25.599609 64.5 L 25.599609 68 C 25.599609 69.6 26.899609 71 28.599609 71 L 32.099609 71 C 32.699609 71 33.099609 70.6 33.099609 70 C 33.099609 69.4 32.699609 69 32.099609 69 L 28.599609 69 C 28.099609 69 27.599609 68.6 27.599609 68 L 27.599609 64.5 C 27.599609 63.9 27.199609 63.5 26.599609 63.5 z M 5 74.699219 C 4.4 74.699219 4 75.099219 4 75.699219 C 4 76.299219 4.4 76.699219 5 76.699219 L 7.4003906 76.699219 C 8.0003906 76.699219 8.4003906 76.299219 8.4003906 75.699219 C 8.4003906 75.099219 8.0003906 74.699219 7.4003906 74.699219 L 5 74.699219 z M 93.099609 74.699219 C 92.499609 74.699219 92.099609 75.099219 92.099609 75.699219 C 92.099609 76.299219 92.499609 76.699219 93.099609 76.699219 L 95 76.699219 C 95.6 76.699219 96 76.299219 96 75.699219 C 96 75.099219 95.6 74.699219 95 74.699219 L 93.099609 74.699219 z M 69.300781 77.900391 C 68.900781 77.900391 68.5 78.199609 68.5 78.599609 L 68.400391 79.599609 L 67.400391 79.5 C 67.000391 79.5 66.599609 79.799219 66.599609 80.199219 C 66.599609 80.599219 66.900781 81 67.300781 81 L 68.300781 81.099609 L 68.199219 82.099609 C 68.199219 82.499609 68.500391 82.900391 68.900391 82.900391 C 69.300391 82.900391 69.699219 82.599219 69.699219 82.199219 L 69.800781 81.199219 L 70.800781 81.300781 C 71.200781 81.300781 71.599609 80.999609 71.599609 80.599609 C 71.599609 80.199609 71.300391 79.800781 70.900391 79.800781 L 69.900391 79.699219 L 70 78.699219 C 70 78.299219 69.700781 78.000391 69.300781 77.900391 z"/></svg>